<?xml version="1.0" encoding="utf-8"?>
<!-- Generator: Adobe Illustrator 16.0.3, SVG Export Plug-In . SVG Version: 6.00 Build 0)  -->
<!DOCTYPE svg PUBLIC "-//W3C//DTD SVG 1.1//EN" "http://www.w3.org/Graphics/SVG/1.1/DTD/svg11.dtd">
<svg version="1.1" id="Layer_1" xmlns="http://www.w3.org/2000/svg" xmlns:xlink="http://www.w3.org/1999/xlink" x="0px" y="0px"
	 width="182px" height="36px" viewBox="0 0 182 36" enable-background="new 0 0 182 36" xml:space="preserve">
<rect x="2" y="1" fill="#176392" width="37" height="14"/>
<rect x="14" y="20" fill="#57B9E8" width="25" height="15"/>
<g>
	<path fill="#176392" d="M43,1h13.372c2.647,0,4.621,0.11,5.921,0.331C63.593,1.552,64.973,2.3,66,3s1.895,1.626,2.579,2.79
		c0.685,1.164,0.799,2.734,0.799,4.179c0,1.567-0.422,3.004-1.267,4.312c-0.844,1.309-1.989,2.29-3.434,2.944
		c2.039,0.593,3.605,1.605,4.701,3.035c1.095,1.43,1.643,3.111,1.643,5.043c0,1.521-0.354,3-1.061,4.438
		c-0.708,1.438-1.674,2.586-2.898,3.446c-1.225,0.859-2.735,1.388-4.53,1.586c-1.125,0.122-3.841,0.198-8.146,0.228H43V1z M50,7
		v8.114h4.427c2.631,0,4.267-0.038,4.906-0.114c1.156-0.137,1.819-0.799,2.48-1.46c0.662-0.662,0.993-1.533,0.993-2.613
		c0-1.035-0.285-1.875-0.855-2.521c-0.571-0.646-1.167-1.213-2.298-1.292C58,7,57,7,53.879,7H50z M50,20v9h6.252
		c2.434,0,3.06,0.061,3.748,0c1.017-0.089,2.46-0.469,3.091-1.176c0.631-0.708,0.947-1.654,0.947-2.841
		c0-1.004-0.303-2.094-0.789-2.795C62.547,21.172,61.546,20,57,20H50z"/>
</g>
<path fill="#176392" d="M75,18.202c0-3.35,0.145-6.16,1.138-8.433c0.742-1.675,1.752-3.177,3.034-4.507
	c1.281-1.331,2.686-2.318,4.21-2.962C85.413,1.434,87.754,1,90.407,1c4.8,0,8.641,1.504,11.523,4.509
	c2.881,3.005,4.07,7.182,4.07,12.537c0,5.306-1.178,9.461-4.037,12.458C99.102,33.502,95.28,35,90.495,35
	c-4.845,0-8.697-1.491-11.557-4.473C76.078,27.543,75,23.435,75,18.202z M81,17.979c0,3.722,1.279,6.544,2.984,8.466
	c1.703,1.92,3.868,2.881,6.49,2.881c2.623,0,4.773-0.954,6.454-2.859c1.683-1.906,3.072-4.766,3.072-8.579
	c0-3.769-1.368-6.578-3.006-8.433c-1.636-1.852-3.81-2.78-6.521-2.78c-2.712,0-4.897,0.938-6.556,2.813
	C82.258,11.365,81,14.195,81,17.979z"/>
<path fill="#176392" d="M111,1h12.355c2.713,0,4.779,0.577,6.202,1c1.911,0.576,3.549,1.596,4.912,3.065
	c1.363,1.467,2.399,3.263,3.111,5.391c0.711,2.126,1.045,4.745,1.045,7.862c0,2.739-0.312,5.099-0.979,7.082
	c-0.815,2.419-1.978,4.378-3.489,5.877c-1.142,1.134-2.683,2.019-4.624,2.655C128.083,34.4,126.142,35,123.713,35H111V1z M117,7v22
	h5.823c1.837,0,3.164-0.05,3.978-0.263c1.067-0.273,1.951-0.759,2.656-1.41c0.704-0.65,1.278-1.721,1.723-3.212
	c0.443-1.488,1.07-3.521,1.07-6.093c0-2.572-0.627-4.544-1.07-5.921c-0.445-1.376-1.068-2.452-1.868-3.225
	c-0.799-0.771-1.814-1.34-3.043-1.613C125.348,7.053,123.682,7,121,7H117z"/>
<path fill="#176392" d="M144,35V1h6v34H144z"/>
<path fill="#176392" d="M155.21,23.727l6.43-0.628c0.389,2.167,1.173,3.757,2.356,4.775c1.185,1.016,2.781,1.522,4.79,1.522
	c2.127,0,3.733-0.452,4.812-1.355c1.079-0.905,1.617-1.96,1.617-3.171c0-0.777-0.228-1.438-0.681-1.985
	c-0.453-0.545-1.246-1.019-2.377-1.421c-0.774-0.271-2.539-0.747-5.292-1.436c-3.542-0.881-6.029-1.964-7.458-3.251
	c-2.009-1.805-3.252-4.011-3.252-6.611c0-1.673,0.711-3.238,1.656-4.696c0.946-1.455,2.307-2.565,4.085-3.327
	C163.676,1.381,165.823,1,168.34,1c4.106,0,7.201,0.903,9.277,2.711c2.077,1.808,3.166,4.223,3.271,7.239l-6.609,0.292
	c-0.282-1.688-0.89-2.902-1.82-3.641c-0.93-0.741-2.326-1.11-4.186-1.11c-1.92,0-3.423,0.396-4.511,1.187
	c-0.7,0.509-1.049,1.189-1.049,2.041c0,0.777,0.328,1.442,0.982,1.994c0.833,0.704,2.858,1.436,6.073,2.198
	c3.216,0.763,5.593,1.55,7.134,2.364c1.539,0.815,2.745,1.928,3.615,3.34c0.872,1.412,1.483,3.156,1.483,5.232
	c0,1.884-0.696,3.647-1.738,5.291c-1.042,1.644-2.517,2.866-4.42,3.665C173.936,34.6,171.562,35,168.72,35
	c-4.14,0-7.317-0.96-9.536-2.879C156.967,30.2,155.643,27.401,155.21,23.727z"/>
</svg>
